# xmcd
#
# Track frame offsets:
#  183
#  41748
#  65700
#  102175
#  127898
#  176688
#
# Disc length: 2785 seconds
#
# Revision: 3
# Processed by: cddbd v1.5.1PL2 Copyright (c) Steve Scherf et al.
# Submitted via: Collectorz.com_Music_Collector 6.10
#
DISCID=4f0adf06
DTITLE=Canned Heat - Live!
DYEAR=1993
DGENRE=Blues Rock
TTITLE0=James Elmore - Robinson - It Hurts Me Too
TTITLE1=Howlin' Wolf - I'd Rather Be The Devil
TTITLE2=Arnold - I Wish You Would
TTITLE3=James Elmore - Dust My Broom
TTITLE4=King - Sweet Sixteen
TTITLE5=Hite, Bob - Vestine, Henry - Wilson Alan - Taylor, Larry - Cook, Frank - Bull Frog Blues
EXTD=
EXTT0=
EXTT1=
EXTT2=
EXTT3=
EXTT4=
EXTT5=
PLAYORDER=
